# xmcd CD database file
#
# Track frame offsets:
#	150
#	20167
#	34649
#	53506
#	71641
#	88473
#	110358
#	127275
#	153288
#	168739
#	183392
#	201315
#	218593
#	237396
#	253838
#	280086
#	296559
#	313056
#
# Disc length: 4461 seconds
#
# Revision: 2
# Processed by: cddbd v1.5.2PL0 Copyright (c) Steve Scherf et al.
# Submitted via: CDex 1.51
#
DISCID=16116b12
DTITLE=Various Artist - Black Magis Black Hits 1 CD1
DYEAR=2001
DGENRE=Blues
TTITLE0=2 Pac - Until The End Of Time
TTITLE1=112 - Peaches Cream
TTITLE2=Danta Thomas - Miss California
TTITLE3=Destinys Child - Survivour
TTITLE4=Lil Bow Wow - Bow Wow
TTITLE5=Nelly - Ride With Me
TTITLE6=Eve - Let Me Blow Ya
TTITLE7=Juvenile - Back That Thang Up
TTITLE8=Kinda - Freak You Out
TTITLE9=Fade - Peaches
TTITLE10=Sarah Connor - Let's Get Back
TTITLE11=Fredo Starr - True Colors
TTITLE12=Outkast - Fresh 'n Clean
TTITLE13=Rhona - Satisfied
TTITLE14=Jon B - Dont Talk
TTITLE15=Deema - Snow In June
TTITLE16=K CiI Jojo - Crazy
TTITLE17=Tamia - Stranger In My House
EXTD=YEAR: 2001
EXTT0=
EXTT1=
EXTT2=
EXTT3=
EXTT4=
EXTT5=
EXTT6=
EXTT7=
EXTT8=
EXTT9=
EXTT10=
EXTT11=
EXTT12=
EXTT13=
EXTT14=
EXTT15=
EXTT16=
EXTT17=
PLAYORDER=
